# xmcd
#
# Track frame offsets:
#	150
#	20780
#	38096
#	51600
#	71346
#
# Disc length: 1192 seconds
#
# Revision: 1
# Processed by: cddbd v1.5.2PL0 Copyright (c) Steve Scherf et al.
# Submitted via: audiograbber 1.83.01
#
DISCID=4304a605
DTITLE=Ashleigh Dallas - Ashleigh Dallas
DYEAR=2013
DGENRE=Country
TTITLE0=Any Other Way
TTITLE1=Brighter Day
TTITLE2=Let Me In
TTITLE3=When He Sees The Rain
TTITLE4=Pushin' The Bow
EXTD=
EXTT0=
EXTT1=
EXTT2=
EXTT3=
EXTT4=
PLAYORDER=
